M48
; DRILL file {KiCad 9.0.3} date 2026-04-14T17:25:19+0700
; FORMAT={-:-/ absolute / metric / decimal}
; #@! TF.CreationDate,2026-04-14T17:25:19+07:00
; #@! TF.GenerationSoftware,Kicad,Pcbnew,9.0.3
; #@! TF.FileFunction,Plated,1,2,PTH
FMAT,2
METRIC
; #@! TA.AperFunction,Plated,PTH,ViaDrill
T1C0.300
; #@! TA.AperFunction,Plated,PTH,ComponentDrill
T2C0.500
; #@! TA.AperFunction,Plated,PTH,ComponentDrill
T3C0.600
; #@! TA.AperFunction,Plated,PTH,ComponentDrill
T4C0.750
; #@! TA.AperFunction,Plated,PTH,ComponentDrill
T5C0.800
; #@! TA.AperFunction,Plated,PTH,ComponentDrill
T6C1.000
; #@! TA.AperFunction,Plated,PTH,ComponentDrill
T7C1.100
; #@! TA.AperFunction,Plated,PTH,ComponentDrill
T8C1.300
; #@! TA.AperFunction,Plated,PTH,ComponentDrill
T9C1.520
; #@! TA.AperFunction,Plated,PTH,ComponentDrill
T10C1.600
; #@! TA.AperFunction,Plated,PTH,ComponentDrill
T11C1.800
; #@! TA.AperFunction,Plated,PTH,ComponentDrill
T12C3.000
%
G90
G05
T1
X43.078Y-58.039
X45.363Y-55.22
X49.402Y-47.219
X49.961Y-73.584
X58.749Y-69.596
X59.181Y-65.71
X59.283Y-73.584
X63.143Y-83.922
X64.972Y-63.043
X67.487Y-69.561
X69.087Y-74.092
X77.393Y-69.469
X77.418Y-68.707
X80.517Y-59.538
X81.89Y-83.927
X81.915Y-81.559
X82.067Y-90.983
X83.413Y-66.751
X83.921Y-74.727
X83.971Y-79.197
X85.394Y-68.707
X85.495Y-69.45
X86.53Y-37.83
X89.255Y-72.974
X89.737Y-113.64
X89.763Y-118.313
X89.788Y-111.633
X89.788Y-112.751
X89.788Y-114.91
X89.788Y-116.738
X91.261Y-72.568
X91.48Y-35.46
X91.515Y-69.596
X91.566Y-68.732
X92.201Y-93.142
X92.734Y-73.33
X92.912Y-70.917
X93.496Y-48.438
X93.839Y-74.612
X94.044Y-39.62
X94.271Y-67.729
X95.008Y-75.806
X96.159Y-77.008
X96.22Y-35.45
X96.9Y-111.633
X96.9Y-113.64
X96.9Y-118.313
X96.925Y-114.935
X96.951Y-116.713
X96.976Y-112.751
X97.052Y-79.121
X97.103Y-81.102
X97.129Y-82.829
X98.25Y-35.33
X98.259Y-67.805
X100.647Y-67.805
X103.021Y-67.793
X105.409Y-67.843
X106.374Y-46.609
X106.4Y-47.371
X107.44Y-55.05
X107.682Y-67.882
X117.982Y-85.217
X121.132Y-51.74
X121.14Y-48.65
X122.605Y-51.74
X122.605Y-67.97
X128.752Y-82.931
X129.006Y-123.546
X129.793Y-82.931
X130.123Y-72.187
X130.86Y-82.956
X132.079Y-82.956
X139.166Y-83.82
X140.131Y-38.786
X140.131Y-41.605
X143.941Y-38.125
X145.008Y-96.317
X145.008Y-103.327
X148.005Y-80.721
X148.005Y-85.065
X153.542Y-80.01
X154.177Y-106.68
X154.202Y-104.14
X154.253Y-101.6
X154.38Y-98.019
X154.38Y-99.06
X154.685Y-73.635
X154.71Y-49.276
X154.71Y-51.689
X154.812Y-72.415
X154.812Y-76.2
X154.939Y-53.264
X154.939Y-68.631
X155.295Y-127.98
X156.082Y-93.98
X156.082Y-104.14
X156.107Y-98.019
X156.133Y-101.6
X156.133Y-106.705
X156.158Y-99.06
X157.225Y-45.669
X157.758Y-60.96
X158.432Y-63.589
X159.181Y-50.063
X159.282Y-66.04
X160.425Y-68.682
X163.321Y-67.31
X164.489Y-115.849
X164.515Y-114.249
X164.515Y-130.861
X164.519Y-115.05
X164.54Y-116.688
X164.82Y-48.971
X164.82Y-53.264
X169.392Y-53.264
X170.332Y-97.79
X171.347Y-93.98
X171.398Y-92.659
X171.475Y-91.262
X171.601Y-98.323
X172.033Y-67.335
X172.541Y-95.148
X172.567Y-53.264
X172.592Y-44.958
X173.049Y-94.336
X173.83Y-93.58
X174.497Y-53.264
X175.284Y-46.0
X175.386Y-83.668
X175.437Y-72.923
X176.148Y-130.785
X176.935Y-46.584
X178.596Y-113.614
X178.927Y-93.019
X179.044Y-92.278
X179.12Y-91.351
X179.196Y-89.738
X179.196Y-90.5
X179.221Y-88.9
X179.221Y-98.323
X179.933Y-86.665
X180.483Y-93.675
X180.542Y-53.264
X181.736Y-98.323
X183.285Y-73.66
X183.296Y-80.833
X184.276Y-98.349
X185.61Y-74.943
X186.395Y-77.815
X186.816Y-98.349
X188.162Y-85.674
X188.924Y-75.286
X189.229Y-63.729
X189.28Y-61.189
X189.305Y-66.269
X189.458Y-130.886
X190.585Y-79.34
X190.585Y-80.213
X195.224Y-85.801
X195.325Y-49.313
X195.325Y-51.451
X196.036Y-85.852
X196.976Y-85.877
X198.703Y-88.9
X199.516Y-89.738
X199.719Y-83.82
X199.719Y-84.709
X199.77Y-81.178
X199.77Y-82.144
X199.77Y-82.944
X200.329Y-90.5
X201.192Y-91.338
X202.158Y-130.861
X202.259Y-92.278
X203.13Y-43.967
X203.377Y-92.761
X203.605Y-50.851
X204.367Y-107.645
X204.418Y-82.245
X204.55Y-52.71
X205.053Y-82.804
X205.663Y-83.49
X206.222Y-84.176
X206.603Y-54.254
X206.806Y-84.912
X207.39Y-85.725
X207.45Y-48.39
X208.06Y-47.79
X208.46Y-47.14
X208.91Y-46.54
X209.21Y-52.73
X209.31Y-56.41
X209.346Y-73.99
X209.346Y-74.854
X209.371Y-76.429
X209.372Y-75.603
X209.422Y-77.241
X209.422Y-79.731
X209.447Y-78.029
X209.447Y-80.62
X209.447Y-81.61
X209.455Y-78.799
X210.133Y-85.598
X210.921Y-58.039
X211.225Y-81.61
X211.276Y-78.029
X211.276Y-78.816
X211.302Y-77.241
X211.302Y-80.62
X211.327Y-79.731
X211.351Y-76.377
X211.352Y-73.939
X211.375Y-75.627
X211.429Y-74.879
X212.381Y-59.449
X212.876Y-86.665
X212.902Y-88.29
X212.978Y-89.865
X213.17Y-57.18
X213.805Y-41.795
X214.21Y-54.25
X214.28Y-61.69
X214.41Y-45.0
X214.422Y-44.2
X214.43Y-45.79
X214.44Y-43.23
X214.84Y-59.04
X214.98Y-37.5
X215.192Y-56.528
X215.204Y-38.42
X215.21Y-40.535
X215.772Y-130.835
X217.3Y-61.12
X217.855Y-68.682
X220.22Y-50.8
X220.649Y-98.171
X220.882Y-56.935
X220.98Y-55.01
X221.792Y-86.944
X221.995Y-85.75
X223.087Y-130.835
X223.189Y-98.146
X223.36Y-48.97
X223.59Y-52.52
X223.722Y-67.132
X224.0Y-55.65
X224.29Y-57.56
X225.15Y-56.31
X225.23Y-54.36
X225.272Y-86.944
X225.78Y-49.21
X226.57Y-57.61
X226.674Y-55.665
X227.76Y-49.04
X228.523Y-89.865
X230.784Y-105.791
X232.028Y-78.969
X232.714Y-105.867
X232.985Y-41.464
X233.034Y-40.666
X234.339Y-90.5
X234.466Y-93.878
X235.282Y-42.06
X235.635Y-130.81
X235.762Y-96.672
X236.549Y-75.184
X236.549Y-90.602
X236.803Y-97.231
X236.829Y-105.131
X236.862Y-42.791
X237.21Y-30.302
X237.235Y-31.318
X238.708Y-60.757
X238.734Y-101.829
X239.521Y-66.726
X239.648Y-58.445
X239.673Y-70.485
X239.7Y-75.64
X239.724Y-69.266
X239.75Y-71.806
X239.8Y-73.152
X239.8Y-74.346
X239.826Y-76.886
X239.826Y-78.105
X239.927Y-101.93
X240.054Y-44.145
X240.071Y-65.938
X240.156Y-46.685
X240.664Y-65.253
X241.401Y-64.414
X252.551Y-104.115
X252.577Y-97.866
T2
X35.046Y-140.605
X35.096Y-29.963
X35.705Y-139.014
X35.705Y-142.196
X35.755Y-28.372
X35.755Y-31.554
X37.296Y-138.355
X37.296Y-142.855
X37.346Y-27.713
X37.346Y-32.213
X38.886Y-139.014
X38.886Y-142.196
X38.937Y-28.372
X38.937Y-31.554
X39.546Y-140.605
X39.596Y-29.963
X249.05Y-140.564
X249.066Y-29.937
X249.709Y-138.973
X249.709Y-142.155
X249.725Y-28.346
X249.725Y-31.528
X251.3Y-138.314
X251.3Y-142.814
X251.316Y-27.687
X251.316Y-32.187
X252.891Y-138.973
X252.891Y-142.155
X252.907Y-28.346
X252.907Y-31.528
X253.55Y-140.564
X253.566Y-29.937
T4
X159.46Y-39.548
X160.73Y-39.548
X162.0Y-39.548
X220.42Y-70.866
X221.69Y-70.866
X222.96Y-70.866
T5
X81.0Y-50.876
X81.0Y-53.416
X81.0Y-55.956
X118.88Y-53.46
X118.88Y-56.0
X118.88Y-58.54
X118.88Y-61.08
X118.88Y-63.62
X118.88Y-66.16
X118.88Y-68.7
X118.88Y-71.24
X118.88Y-73.78
X118.88Y-76.32
X118.88Y-78.86
X118.88Y-81.4
X118.882Y-89.462
X118.882Y-92.002
X118.882Y-94.542
X118.882Y-97.082
X126.5Y-53.46
X126.5Y-56.0
X126.5Y-58.54
X126.5Y-61.08
X126.5Y-63.62
X126.5Y-66.16
X126.5Y-68.7
X126.5Y-71.24
X126.5Y-73.78
X126.5Y-76.32
X126.5Y-78.86
X126.5Y-81.4
X126.502Y-89.462
X126.502Y-92.002
X126.502Y-94.542
X126.502Y-97.082
X141.655Y-88.035
X141.655Y-92.915
X151.18Y-60.96
X151.18Y-63.5
X151.18Y-66.04
X151.18Y-68.58
X151.18Y-71.12
X151.18Y-73.66
X151.18Y-76.2
X151.18Y-78.74
X151.18Y-81.28
X151.18Y-83.82
X151.18Y-86.36
X151.18Y-88.9
X151.18Y-91.44
X151.18Y-93.98
X151.18Y-96.52
X151.18Y-99.06
X151.18Y-101.6
X151.18Y-104.14
X151.18Y-106.68
X151.18Y-109.22
X156.057Y-30.505
X156.057Y-40.665
X166.42Y-60.96
X166.42Y-63.5
X166.42Y-66.04
X166.42Y-68.58
X166.42Y-71.12
X166.42Y-73.66
X166.42Y-76.2
X166.42Y-78.74
X166.42Y-81.28
X166.42Y-83.82
X166.42Y-86.36
X166.42Y-88.9
X166.42Y-91.44
X166.42Y-93.98
X166.42Y-96.52
X166.42Y-99.06
X166.42Y-101.6
X166.42Y-104.14
X166.42Y-106.68
X166.42Y-109.22
X179.21Y-100.97
X179.21Y-108.59
X181.75Y-100.97
X181.75Y-108.59
X184.29Y-100.97
X184.29Y-108.59
X186.83Y-100.97
X186.83Y-108.59
X189.37Y-100.97
X189.37Y-108.59
X191.91Y-100.97
X191.91Y-108.59
X192.21Y-61.2
X192.21Y-63.74
X192.21Y-66.28
X192.21Y-68.82
X192.21Y-71.36
X192.21Y-73.9
X194.45Y-100.97
X194.45Y-108.59
X196.99Y-100.97
X196.99Y-108.59
X199.83Y-61.2
X199.83Y-63.74
X199.83Y-66.28
X199.83Y-68.82
X199.83Y-71.36
X199.83Y-73.9
X207.96Y-100.89
X207.96Y-108.51
X210.5Y-100.89
X210.5Y-108.51
X213.04Y-100.89
X213.04Y-108.51
X215.58Y-100.89
X215.58Y-108.51
X218.12Y-100.89
X218.12Y-108.51
X220.66Y-100.89
X220.66Y-108.51
X223.2Y-100.89
X223.2Y-108.51
X225.74Y-100.89
X225.74Y-108.51
T6
X45.663Y-102.668
X48.203Y-102.668
X50.743Y-102.668
X53.283Y-102.668
X53.764Y-90.734
X53.881Y-75.418
X55.823Y-102.668
X56.303Y-75.494
X56.303Y-90.734
X58.363Y-102.668
X58.843Y-75.494
X58.843Y-90.734
X60.903Y-102.668
X61.383Y-75.494
X61.383Y-90.734
X63.444Y-102.668
X63.923Y-75.494
X63.923Y-90.734
X65.983Y-102.668
X66.463Y-75.494
X66.463Y-90.734
X68.523Y-102.668
X71.063Y-102.668
X73.603Y-102.668
X75.437Y-64.338
X75.869Y-43.332
X76.144Y-102.668
X77.977Y-64.338
X78.409Y-43.332
X78.683Y-102.668
X80.517Y-64.338
X80.949Y-43.332
X81.224Y-102.668
X83.763Y-102.668
X98.094Y-53.772
X100.634Y-53.772
X103.174Y-53.772
X103.631Y-87.732
X119.628Y-107.177
X119.628Y-109.677
X119.628Y-112.177
X134.87Y-29.764
X134.87Y-41.764
X165.12Y-32.374
X165.12Y-34.874
X165.12Y-37.374
X181.203Y-56.947
X199.237Y-31.963
X199.237Y-39.563
X211.429Y-65.774
X233.273Y-110.668
X244.952Y-81.864
X244.952Y-84.404
X244.952Y-86.944
X244.952Y-89.484
X244.952Y-92.024
X245.033Y-66.726
X245.033Y-69.266
X245.033Y-71.806
X245.033Y-74.346
X245.033Y-76.886
X245.053Y-36.525
X245.053Y-39.065
X245.053Y-41.605
X245.053Y-44.145
X245.053Y-46.685
X245.053Y-52.121
X245.053Y-54.661
X245.053Y-57.201
X245.053Y-59.741
X245.053Y-62.281
X247.492Y-81.864
X247.492Y-84.404
X247.492Y-86.944
X247.492Y-89.484
X247.492Y-92.024
X247.573Y-66.726
X247.573Y-69.266
X247.573Y-71.806
X247.573Y-74.346
X247.573Y-76.886
X247.593Y-36.525
X247.593Y-39.065
X247.593Y-41.605
X247.593Y-44.145
X247.593Y-46.685
X247.593Y-52.121
X247.593Y-54.661
X247.593Y-57.201
X247.593Y-59.741
X247.593Y-62.281
T7
X121.438Y-131.405
X121.438Y-135.905
X126.847Y-45.745
X127.938Y-131.405
X127.938Y-135.905
X137.007Y-45.745
X148.099Y-134.442
X148.099Y-138.942
X154.599Y-134.442
X154.599Y-138.942
X161.099Y-134.442
X161.099Y-138.942
X167.599Y-134.442
X167.599Y-138.942
X174.099Y-134.442
X174.099Y-138.942
X180.599Y-134.442
X180.599Y-138.942
X187.099Y-134.442
X187.099Y-138.942
X193.599Y-134.442
X193.599Y-138.942
X200.099Y-134.442
X200.099Y-138.942
X206.599Y-134.442
X206.599Y-138.942
X213.099Y-134.442
X213.099Y-138.942
X219.599Y-134.442
X219.599Y-138.942
X225.099Y-134.442
X225.099Y-138.942
X231.599Y-134.442
X231.599Y-138.942
X238.099Y-134.442
X238.099Y-138.942
X244.599Y-134.442
X244.599Y-138.942
T8
X122.62Y-41.814
X122.67Y-29.764
X136.82Y-35.814
T9
X76.275Y-31.775
X81.355Y-31.775
X104.596Y-30.632
X109.676Y-30.632
X114.756Y-30.632
T10
X39.699Y-36.398
X39.699Y-49.098
T12
X37.296Y-140.605
X37.346Y-29.963
X251.3Y-140.564
X251.316Y-29.937
T3
G00X89.57Y-29.415
M15
G01X89.57Y-28.615
M16
G05
G00X89.57Y-33.745
M15
G01X89.57Y-32.645
M16
G05
G00X98.21Y-29.415
M15
G01X98.21Y-28.615
M16
G05
G00X98.21Y-33.745
M15
G01X98.21Y-32.645
M16
G05
T6
G00X61.898Y-36.265
M15
G01X61.898Y-38.265
M16
G05
G00X67.598Y-34.265
M15
G01X65.598Y-34.265
M16
G05
G00X67.598Y-40.265
M15
G01X65.598Y-40.265
M16
G05
T11
G00X126.478Y-105.277
M15
G01X126.778Y-105.277
M16
G05
G00X126.478Y-114.077
M15
G01X126.778Y-114.077
M16
G05
G00X171.97Y-30.474
M15
G01X172.27Y-30.474
M16
G05
G00X171.97Y-39.274
M15
G01X172.27Y-39.274
M16
G05
M30
